HIERARCHY
ROOT Hips
{
  OFFSET 16.6969 103.786 -145.041
  CHANNELS 6 Xposition Yposition Zposition Zrotation Xrotation Yrotation
  JOINT RightUpLeg
  {
    OFFSET -8.9458 -8.66707 0.101652
    CHANNELS 3 Zrotation Xrotation Yrotation
    JOINT RightLeg
    {
      OFFSET 0 -44.4227 1.3727
      CHANNELS 3 Zrotation Xrotation Yrotation
      JOINT RightFoot
      {
        OFFSET 0.253549 -42.0924 -1.46059
        CHANNELS 3 Zrotation Xrotation Yrotation
        JOINT RightToes
        {
          OFFSET 0.04 -4.41509 8.4991
          CHANNELS 3 Zrotation Xrotation Yrotation
          End Site
          {
            OFFSET -0.08 -0.137448 9.77979
          }
        }
      }
    }
  }
  JOINT Spine
  {
    OFFSET 0 11.8905 0
    CHANNELS 3 Zrotation Xrotation Yrotation
    JOINT Spine1
    {
      OFFSET 0 25.6574 0.127663
      CHANNELS 3 Zrotation Xrotation Yrotation
      JOINT HEad
      {
        OFFSET 0 8.73416 0.011341
        CHANNELS 3 Zrotation Xrotation Yrotation
        End Site
        {
          OFFSET -0.29 12.7742 2.51395
        }
      }
      JOINT LeftShoulder1
      {
        OFFSET 8.99 -0.362252 -0.22
        CHANNELS 3 Zrotation Xrotation Yrotation
        JOINT LeftArm
        {
          OFFSET 10.2827 -0.00338 0.322123
          CHANNELS 3 Zrotation Xrotation Yrotation
          JOINT LeftForeArm
          {
            OFFSET 32.7669 0.099144 -1.42434
            CHANNELS 3 Zrotation Xrotation Yrotation
            JOINT LeftHand
            {
              OFFSET 27.5643 0.085362 1.02216
              CHANNELS 3 Zrotation Xrotation Yrotation
              End Site
              {
                OFFSET 16.7443 -0.6 1.50291
              }
            }
          }
        }
      }
      JOINT RightShoulder
      {
        OFFSET -8.99 -0.362252 -0.22
        CHANNELS 3 Zrotation Xrotation Yrotation
        JOINT RightArm
        {
          OFFSET -10.2827 -0.00338 0.322123
          CHANNELS 3 Zrotation Xrotation Yrotation
          JOINT RightForeArm
          {
            OFFSET -32.8971 0.099144 -1.42434
            CHANNELS 3 Zrotation Xrotation Yrotation
            JOINT RightHand
            {
              OFFSET -27.4921 0.085362 1.02216
              CHANNELS 3 Zrotation Xrotation Yrotation
              End Site
              {
                OFFSET -16.6312 -0.6 1.50291
              }
            }
          }
        }
      }
    }
  }
  JOINT LeftUpLeg
  {
    OFFSET 8.9458 -8.66707 0.101652
    CHANNELS 3 Zrotation Xrotation Yrotation
    JOINT LeftLeg
    {
      OFFSET 0 -44.4227 1.3727
      CHANNELS 3 Zrotation Xrotation Yrotation
      JOINT LeftFoot
      {
        OFFSET -0.253549 -42.0924 -1.46059
        CHANNELS 3 Zrotation Xrotation Yrotation
        JOINT LeftToes
        {
          OFFSET -0.04 -4.41509 8.4991
          CHANNELS 3 Zrotation Xrotation Yrotation
          End Site
          {
            OFFSET 0.08 -0.047448 9.77979
          }
        }
      }
    }
  }
}
MOTION
Frames:	17
Frame Time:	0.0166667
17.2147 103.904 -145.627 -6.96052 -0.0522462 4.82366 4.43614 -5.49369 -0.328634 9.27134 12.2599 -6.35077 0.745176 -7.95487 -0.152974 0.0462048 0.000533964 0.662642 1.41362 4.78352 0.861484 7.01692 3.6733 -0.4672 -2.85002 -0.99952 5.75271 2.98177e-016 -1.59028e-015 -7.95139e-016 -99.6827 -43.5161 -16.3854 -9.92799 15.0379 -27.1793 0.368473 9.90896 -0.00117927 -6.78857 0.202793 4.57976 95.8317 -37.0945 13.2623 14.5844 15.0432 19.2957 -0.369625 9.91382 0.00119886 11.7097 -1.89181 0.141991 -11.3361 16.4238 -5.43508 0.987028 -4.09008 0.0325197 2.09809e-011 2.46334e-012 -1.99063e-011 
17.0347 103.862 -145.434 -6.89196 -0.0245372 4.83668 4.43488 -5.48286 -0.266668 9.35143 12.424 -6.34585 0.885837 -8.21586 -0.144909 0.0537591 -0.0200217 0.641472 1.48553 4.79223 0.870265 7.14044 3.54735 -0.466384 -2.89673 -0.623467 5.73241 2.20695e-032 -1.59028e-015 7.95139e-016 -99.8198 -43.0059 -16.6042 -10.0058 15.0799 -27.4193 0.368473 9.90896 -0.00117927 -6.63593 0.207753 4.36864 95.5087 -37.0485 13.2539 14.6602 15.0586 19.3432 -0.369625 9.91382 0.00119886 11.7651 -1.99897 0.0885975 -11.3857 16.781 -5.41415 0.865046 -4.18981 0.031939 -0.104612 -0.162629 0.101447 
16.8593 103.821 -145.24 -6.8204 -0.00953645 4.81464 4.42527 -5.45492 -0.189774 9.44088 12.5848 -6.34106 0.994892 -8.4568 -0.138402 0.0115977 -0.0596606 0.739562 1.54811 4.79739 0.884963 7.30301 3.45048 -0.470833 -3.00871 -0.263922 5.74254 1.98785e-016 0 7.95139e-016 -99.975 -42.5483 -16.805 -10.0848 15.1218 -27.663 0.368473 9.90896 -0.00117927 -6.54246 0.209543 4.18994 95.221 -36.9973 13.2599 14.7289 15.0735 19.3955 -0.369625 9.91382 0.00119886 11.8143 -2.10151 0.0508791 -11.4207 17.1675 -5.44638 0.724394 -4.06006 0.0301987 -0.256785 -0.67073 0.23083 
16.6969 103.786 -145.041 -6.74261 -0.0346949 4.72756 4.39198 -5.35579 -0.108115 9.55254 12.7077 -6.33998 1.00461 -8.62566 -0.136863 -0.203204 -0.17789 1.25311 1.57247 4.79021 0.919679 7.58693 3.43292 -0.49085 -3.31401 0.0652143 5.82013 0 4.77083e-015 -0 -100.198 -42.1941 -16.9694 -10.1742 15.1654 -27.91 0.368473 9.90896 -0.00117927 -6.59722 0.202811 4.06226 94.9789 -36.918 13.2788 14.7981 15.0901 19.4637 -0.369625 9.91382 0.00119886 11.8541 -2.19069 0.0486388 -11.4043 17.6296 -5.70886 0.4939 -3.11077 0.0239309 -0.574814 -2.40212 0.465028 
16.5407 103.748 -144.85 -6.65656 -0.0685136 4.5252 4.34679 -5.27915 0.0684374 9.68538 12.8839 -6.33213 0.991307 -8.79834 -0.13634 -0.416385 -0.27242 1.77058 1.60804 4.7828 0.955773 7.90146 3.4603 -0.516574 -3.69391 0.339166 5.97465 -1.98785e-016 -3.18055e-015 -0 -100.439 -42.0001 -17.0938 -10.2532 15.2077 -28.1771 0.368473 9.90896 -0.00117927 -6.76995 0.190933 4.05949 94.8924 -36.8586 13.3721 14.8168 15.1009 19.533 -0.369625 9.91382 0.00119886 11.8699 -2.27425 0.0852158 -11.3782 18.144 -5.88553 0.312825 -2.19416 0.0186425 -0.867307 -4.10499 0.686759 
16.3836 103.699 -144.7 -6.55241 -0.0983141 4.01652 4.3004 -5.32011 0.562215 9.85431 13.2225 -6.30768 1.01655 -9.0454 -0.133596 -0.461348 -0.190958 1.89214 1.69677 4.78489 0.975706 8.17074 3.57825 -0.546158 -4.07854 0.431429 6.31833 -1.98785e-016 1.59028e-015 7.95139e-016 -100.683 -42.1476 -17.1816 -10.3062 15.2507 -28.5262 0.368473 9.90896 -0.00117927 -7.15935 0.171909 4.40991 95.2909 -36.886 13.7325 14.6599 15.0883 19.5772 -0.369625 9.91382 0.00119886 11.84 -2.31361 0.263408 -11.3857 18.6923 -5.63365 0.317307 -2.02703 0.0186497 -0.932567 -4.69639 0.723387 
16.2357 103.637 -144.533 -6.45014 -0.0950501 3.59387 4.24483 -5.41951 0.966823 10.0234 13.6352 -6.26869 1.05715 -9.33079 -0.129872 -0.453793 -0.14347 1.87881 1.83216 4.79483 0.99029 8.43247 3.59709 -0.565871 -4.44743 0.633425 6.57986 7.95139e-016 -1.59028e-015 -7.95139e-016 -100.875 -42.314 -17.1942 -10.3272 15.2809 -28.8225 0.368473 9.90896 -0.00117927 -7.46699 0.156549 4.66894 95.5287 -36.9193 13.9657 14.5572 15.0848 19.6412 -0.369625 9.91382 0.00119886 11.7822 -2.43901 0.304652 -11.4292 19.3116 -5.19651 0.443986 -2.42558 0.0240213 -1.01043 -4.5485 0.810948 
16.1101 103.548 -144.284 -6.38155 0.0116227 3.72787 4.17408 -5.60019 0.801639 10.1575 14.1181 -6.1822 1.1193 -9.65229 -0.124737 -0.419826 -0.381273 1.76636 2.05206 4.82163 1.00341 8.70064 3.22467 -0.551019 -4.72643 1.31332 6.41998 -2.98177e-016 1.59028e-015 -0 -100.914 -42.1312 -17.0651 -10.3071 15.2835 -28.904 0.368473 9.90896 -0.00117927 -7.32471 0.159 4.31362 94.8441 -36.8859 13.5766 14.7796 15.1299 19.7842 -0.369625 9.91382 0.00119886 11.7021 -2.83004 -0.143806 -11.5418 20.0302 -4.69107 0.792802 -3.90979 0.0416042 -1.41762 -3.14798 1.30816 
15.9917 103.468 -144.004 -6.30025 0.110512 3.99268 4.08113 -5.71397 0.510599 10.2688 14.5273 -6.14283 1.17643 -9.97887 -0.119967 -0.458 -0.627896 1.83082 2.26527 4.84301 1.01832 8.97031 2.81394 -0.532659 -4.99563 2.11573 6.15739 -2.48481e-015 3.18055e-015 7.95139e-016 -100.922 -41.9166 -16.8783 -10.2433 15.2695 -28.9139 0.368473 9.90896 -0.00117927 -7.04201 0.167161 3.80742 93.9094 -36.8329 13.058 15.0767 15.1842 19.9368 -0.369625 9.91382 0.00119886 11.5969 -3.29976 -0.757473 -11.66 20.855 -4.15786 1.01203 -5.0851 0.0555451 -1.73219 -2.06826 1.67547 
15.8635 103.44 -143.711 -6.16511 0.0710167 4.11231 3.96924 -5.51524 0.421178 10.3563 14.61 -6.32968 1.20636 -10.2912 -0.117133 -0.77642 -0.569326 2.63369 2.36236 4.82994 1.04366 9.25218 2.6736 -0.539064 -5.33476 2.77857 5.9886 6.95746e-016 1.59028e-015 -7.95139e-016 -100.982 -41.8695 -16.6663 -10.1162 15.2439 -28.9727 0.368473 9.90896 -0.00117927 -6.78036 0.174306 3.43498 93.1204 -36.7885 12.7586 15.2828 15.2187 20.0313 -0.369625 9.91382 0.00119886 11.4911 -3.65686 -1.38973 -11.6969 21.7645 -3.71921 0.630078 -4.11008 0.0455756 -1.42441 -3.50137 1.30096 
15.7449 103.425 -143.446 -5.98469 0.0222091 4.10775 3.8176 -5.31922 0.403656 10.4334 14.687 -6.45686 1.20198 -10.552 -0.11645 -1.06562 -0.569082 3.35404 2.43583 4.81163 1.0671 9.51103 2.64426 -0.553575 -5.71094 3.3857 5.93705 9.93923e-017 0 -7.95139e-016 -101.092 -41.9775 -16.5069 -9.96603 15.2086 -28.987 0.368473 9.90896 -0.00117927 -6.61581 0.178476 3.20978 92.5368 -36.75 12.6115 15.4164 15.2435 20.1203 -0.369625 9.91382 0.00119886 11.3406 -4.09467 -1.85837 -11.7407 22.8743 -3.25195 0.100639 -2.84533 0.0312266 -0.991124 -5.07633 0.763906 
15.6559 103.4 -143.28 -5.73614 0.0717271 3.80282 3.5822 -5.4296 0.463998 10.5168 15.066 -6.16839 1.12143 -10.6623 -0.120313 -0.977176 -1.04352 3.09156 2.54052 4.81214 1.07627 9.69595 2.68487 -0.569274 -6.13342 3.93716 6.19317 -8.94531e-016 -4.77083e-015 7.95139e-016 -101.298 -42.3851 -16.5337 -9.83637 15.168 -28.8877 0.368473 9.90896 -0.00117927 -6.75552 0.17364 3.35153 92.5009 -36.7316 12.7571 15.3921 15.2513 20.222 -0.369625 9.91382 0.00119886 11.0904 -4.73739 -1.85705 -11.8997 24.2765 -2.53425 -0.294253 -2.96214 0.0276293 -0.687065 -4.56758 0.471661 
15.5786 103.368 -143.144 -5.47397 0.153178 3.51301 3.33178 -5.63521 0.522193 10.5849 15.5358 -5.85245 1.04669 -10.788 -0.123747 -0.822919 -1.52046 2.64632 2.67977 4.81795 1.07992 9.86538 2.74911 -0.585308 -6.56925 4.42089 6.45379 -1.09332e-015 0 -3.97569e-016 -101.541 -42.8221 -16.6174 -9.69568 15.1185 -28.7233 0.368473 9.90896 -0.00117927 -6.96781 0.165273 3.52614 92.5608 -36.7092 12.9221 15.3549 15.2655 20.3722 -0.369625 9.91382 0.00119886 10.8218 -5.6036 -1.61022 -12.0805 26.0167 -1.96459 -0.514708 -3.18691 0.0273385 -0.5042 -3.72796 0.33347 
15.4969 103.323 -142.979 -5.25245 0.240136 3.54818 3.13172 -5.8146 0.512868 10.6276 15.9635 -5.86856 1.06868 -11.0971 -0.121329 -0.81958 -1.56146 2.6323 2.88254 4.82671 1.0824 10.0629 2.73682 -0.594576 -6.983 4.82994 6.42848 -2.38542e-015 1.59028e-015 -3.97569e-016 -101.752 -43.029 -16.6325 -9.52643 15.0558 -28.5037 0.368473 9.90896 -0.00117927 -7.06255 0.157009 3.41397 92.3048 -36.6628 12.8069 15.4546 15.3139 20.6341 -0.369625 9.91382 0.00119886 10.6056 -6.77446 -1.20581 -12.1308 28.2121 -2.02761 -0.362545 -2.6699 0.0296421 -0.62359 -3.85351 0.449271 
15.4249 103.263 -142.827 -5.05548 0.319961 3.74905 2.94467 -6.00238 0.397734 10.6634 16.4223 -5.95522 1.11889 -11.4843 -0.116767 -0.844945 -1.47863 2.70679 3.12677 4.8289 1.08447 10.2819 2.76844 -0.608898 -7.3518 5.15391 6.26669 -2.48481e-015 0 -0 -101.998 -43.1176 -16.6877 -9.33006 14.9875 -28.2757 0.368473 9.90896 -0.00117927 -7.12267 0.148322 3.19142 91.9576 -36.5961 12.6327 15.5912 15.3735 20.9449 -0.369625 9.91382 0.00119886 10.4233 -8.18496 -0.745389 -12.123 30.7499 -2.33593 -0.0295252 -1.81082 0.0295695 -0.828529 -4.0901 0.647733 
15.3697 103.17 -142.734 -4.8988 0.376604 4.12045 2.76812 -6.24395 0.0503989 10.6935 17.0087 -5.95443 1.15623 -11.9175 -0.112007 -0.845338 -1.49076 2.70642 3.42598 4.81148 1.08481 10.5211 2.964 -0.639264 -7.57925 5.37652 5.97676 -1.2921e-015 0 -0 -102.37 -43.0285 -16.9407 -9.0668 14.9144 -28.0816 0.368473 9.90896 -0.00117927 -7.13186 0.140464 2.8542 91.5995 -36.4656 12.5518 15.7245 15.4347 21.2837 -0.369625 9.91382 0.00119886 10.2865 -9.86938 -0.363358 -12.1835 33.6492 -2.6742 0.488246 -0.610992 0.0164944 -1.01908 -4.10772 0.847842 
15.336 103.086 -142.623 -4.73859 0.393994 4.47989 2.55919 -6.38498 -0.330627 10.7402 17.5202 -5.91039 1.18929 -12.3454 -0.106927 -0.843474 -1.43974 2.70726 3.7025 4.78258 1.09407 10.8091 3.22449 -0.681124 -7.86408 5.50658 5.6926 1.78906e-015 1.59028e-015 7.95139e-016 -102.738 -43.0139 -17.1223 -8.84453 14.8552 -27.9437 0.368473 9.90896 -0.00117927 -7.19755 0.131732 2.62476 91.2501 -36.3946 12.471 15.8273 15.4868 21.5889 -0.369625 9.91382 0.00119886 10.1274 -11.6109 -0.051974 -12.1372 36.6305 -2.95732 0.803465 0.584052 0.00671249 -1.03063 -3.63019 0.878388 
